<?xml version="1.0" encoding="UTF-8"?>
<svg id="Layer_2" data-name="Layer 2" xmlns="http://www.w3.org/2000/svg" viewBox="0 0 1172.41 1172.41">
  <defs>
    <style>
      .cls-1 {
        fill: #fff;
      }

      .cls-2 {
        fill: #f64e03;
      }
    </style>
  </defs>
  <g id="Layer_1-2" data-name="Layer 1">
    <circle class="cls-2" cx="586.2" cy="586.2" r="586.2"/>
    <path class="cls-1" d="M387.73,316.91c71.87-5.37,149.23,3.28,221.67-.34,79.96,5.37,140.95,72.35,145.55,151.27,3.39,58.16-4.42,121.22-.09,178.89,1.57,20.96,15.07,41.68,37.16,44.64,35.52,4.76,99.79-7.39,130.3,4.09,59.64,22.43,46.92,113.08-18.44,118.9-93.11-4.73-193.82,25.19-249.25-70.91-42.07-72.93-14.24-187.89-22.42-269.73-2.89-18.32-16.43-35.04-35.67-36.78-62.78,3.48-130.67-4.69-192.85-.07-39.75,2.96-39.79,59.59.18,64.2,23.42,2.7,45.89-1.85,70.62,3.01,168.12,33,142.4,300.81-30.96,310.35-50.49,2.78-103.53-2.16-154.29-.06-78.69-5.92-78.82-117.09-3.57-122.73,46.72-3.5,97.66,2.82,144.83-.08,26.61-3.78,41.22-33.3,22.34-54.81-15.03-17.12-38.33-10.42-58.43-11.69-187.18-11.81-195.5-294.05-6.67-308.15Z"/>
  </g>
</svg>